<svg xmlns="http://www.w3.org/2000/svg" width="128" height="128" viewBox="0 0 128 128">
  <defs>
    <linearGradient id="g" x1="0" y1="0" x2="1" y2="1"><stop offset="0" stop-color="#1e3a8a"/><stop offset="1" stop-color="#0b1220"/></linearGradient>
    <linearGradient id="a" x1="0" y1="0" x2="1" y2="0"><stop offset="0" stop-color="#60a5fa"/><stop offset="1" stop-color="#22d3ee"/></linearGradient>
  </defs>
  <rect width="128" height="128" rx="28" fill="url(#g)"/>
  <rect x="8" y="8" width="112" height="112" rx="22" fill="none" stroke="#60a5fa" stroke-opacity=".25"/>
  <!-- isometric warehouse floor -->
  <path d="M24 72 L64 52 L104 72 L64 92 Z" fill="#0f172a" stroke="#334155"/>
  <!-- two racks -->
  <path d="M36 70 L52 62 L52 46 L36 54 Z" fill="#e07a1f"/><path d="M52 62 L60 66 L60 50 L52 46 Z" fill="#b85f12"/><path d="M36 54 L52 46 L60 50 L44 58 Z" fill="#f59e0b"/>
  <path d="M68 86 L84 78 L84 62 L68 70 Z" fill="#e07a1f"/><path d="M84 78 L92 82 L92 66 L84 62 Z" fill="#b85f12"/><path d="M68 70 L84 62 L92 66 L76 74 Z" fill="#f59e0b"/>
  <!-- robot -->
  <path d="M58 80 L70 74 L76 77 L64 83 Z" fill="#e5e7eb"/><path d="M64 83 L76 77 L76 80 L64 86 Z" fill="#9ca3af"/><path d="M58 80 L64 83 L64 86 L58 83 Z" fill="#cbd5e1"/>
  <circle cx="67" cy="78" r="1.8" fill="#22c55e"/>
  <!-- twin / signal arcs -->
  <path d="M64 40 a14 14 0 0 1 14 14" fill="none" stroke="url(#a)" stroke-width="3" stroke-linecap="round"/>
  <path d="M64 30 a24 24 0 0 1 24 24" fill="none" stroke="url(#a)" stroke-width="3" stroke-linecap="round" stroke-opacity=".6"/>
  <path d="M64 20 a34 34 0 0 1 34 34" fill="none" stroke="url(#a)" stroke-width="3" stroke-linecap="round" stroke-opacity=".3"/>
  <!-- path line -->
  <path d="M30 96 L58 82" stroke="#22d3ee" stroke-width="2" stroke-dasharray="3 3" stroke-linecap="round"/>
</svg>
